<svg>
  <symbol id="readmore" xmlns="http://www.w3.org/2000/svg" viewBox="0 0 48 48"><path d="M48 24c-5.5-2-12.2-5.5-16.4-9.1l2.7 7.5H0v3.2h34.3l-2.7 7.5C35.8 29.5 42.5 26 48 24z"/></symbol>

  <symbol id="phone" xmlns="http://www.w3.org/2000/svg" viewBox="0 0 48 48"><path d="M47.8 35.8c-.4-1.1-1.6-1.8-3.2-2.6l-1.8-1c-1.2-.7-2.4-1.3-3.5-2-.2-.1-.4-.2-.6-.4-.8-.6-1.9-1.3-3.1-1.3-1.8 0-3.2 1.8-4.7 3.6-.6.7-1.6 2-1.8 2.2-.3 0-1.1-.5-1.5-.7l-.5-.3c-5.5-3.1-9.3-6.9-12.4-12.4l-.3-.5c-.2-.4-.7-1.2-.8-1.2.2-.4 1.4-1.4 2.2-2 1.9-1.5 3.6-2.9 3.6-4.7 0-1.2-.7-2.3-1.3-3.1-.1-.2-.3-.4-.4-.5-.7-1.2-1.3-2.4-2-3.5l-1.1-2C13.9 2 13.2.8 12.2.4 11.8 0 11.3 0 11 0 9.7 0 7.2.6 6 1.1 3.9 2 2.6 4.2 1.8 5.7.6 8 0 10.1 0 12.4c0 2.8.9 5.3 1.8 7.7l.4 1.2c.8 2.2 1.7 4.1 2.8 5.9C8.5 32.9 15.1 39.5 20.8 43c1.7 1.1 3.7 2 5.9 2.8l1.2.5c2.4.9 4.9 1.8 7.7 1.8 2.2 0 4.4-.6 6.7-1.8 1.5-.8 3.7-2 4.6-4.1.6-1.3 1.1-3.8 1.1-5.1 0-.4 0-.9-.2-1.3zm-3.9 5c-.5 1.1-2.1 2-3.2 2.6-4.1 2.2-7.7 1.3-11.7-.2l-1.3-.5c-2-.7-3.7-1.5-5.3-2.5-5-3.2-11.4-9.5-14.6-14.8-1-1.6-1.8-3.3-2.5-5.3l-.5-1.2c-.8-2.2-1.6-4.3-1.6-6.6 0-1.7.5-3.4 1.4-5.1.6-1 1.5-2.7 2.7-3.2.9-.4 2.9-.8 3.7-.9.3.2.7 1.2.9 1.5L13 6.7c.7 1.2 1.3 2.4 2.1 3.6.1.2.3.5.5.7.2.4.7 1 .7 1.1-.2.5-1.6 1.6-2.4 2.3-1.8 1.5-3.3 2.7-3.3 4.3 0 1.2.7 2.3 1.2 3.1l.2.4c3.4 6.1 7.6 10.3 13.6 13.6l.4.2c.9.5 2 1.2 3.1 1.2 1.6 0 2.8-1.5 4.3-3.3.7-.8 1.8-2.3 2.2-2.4.3 0 .9.5 1.3.7.3.2.5.4.8.5l3.6 2.1 2.1 1.2c.3.2 1.3.6 1.4.8 0 1.1-.4 3.1-.9 4z"/></symbol>

  <symbol id="mail" xmlns="http://www.w3.org/2000/svg" viewBox="0 0 48 48"><path d="M40 7H8c-4.4 0-8 3.6-8 8v18c0 4.4 3.6 8 8 8h32c4.4 0 8-3.6 8-8V15c0-4.4-3.6-8-8-8zM24 28.7L5.8 10.5c.7-.3 1.4-.5 2.2-.5h32c.8 0 1.5.2 2.2.5L24 28.7zM3 33V15c0-1.2.4-2.3 1.1-3.1L24 31.7l19.9-19.9c.7.9 1.1 1.9 1.1 3.1v18c0 2.8-2.2 5-5 5H8c-2.8.1-5-2.1-5-4.9z"/></symbol>

  <symbol id="search" xmlns="http://www.w3.org/2000/svg" viewBox="0 0 48 48"><path d="M48 44.9l-16-16c2.1-2.9 3.4-6.5 3.4-10.4C35.4 8.7 27.5.8 17.7.8S0 8.7 0 18.5s7.9 17.7 17.7 17.7c4.7 0 9-1.9 12.2-4.9l15.9 15.9 2.2-2.3zM17.7 33c-8 0-14.5-6.5-14.5-14.5S9.7 4 17.7 4s14.5 6.5 14.5 14.5c0 3.7-1.4 7-3.7 9.6l-1 1c-2.5 2.4-6 3.9-9.8 3.9z"/></symbol>

  <symbol id="caret" xmlns="http://www.w3.org/2000/svg" viewBox="0 0 48 48"><path d="M30.9 19.2L24 27.4l-6.9-8.2h13.8m5.1-2.4H12l12 14.4 12-14.4z"/></symbol>

  <symbol id="facebook" xmlns="http://www.w3.org/2000/svg" viewBox="0 0 48 48"><path d="M45.3 0c.7 0 1.4.3 1.9.8s.8 1.1.8 1.9v42.7c0 .7-.3 1.4-.8 1.9s-1.1.8-1.9.8H33.1V29.4h6.2l.9-7.3H33v-4.6c0-1.2.2-2 .7-2.6.5-.6 1.4-.9 2.9-.9h3.8V7.5c-1.3-.2-3.2-.3-5.6-.3-2.8 0-5.1.8-6.8 2.5-1.7 1.7-2.5 4-2.5 7.1v5.3h-6.3v7.3h6.3V48h-23c-.7 0-1.4-.3-1.9-.8-.3-.5-.6-1.1-.6-1.9V2.7C0 2 .3 1.3.8.8S1.9 0 2.7 0h42.6z"/></symbol>

  <symbol id="calendar" xmlns="http://www.w3.org/2000/svg" viewBox="0 0 48 48"><path d="M39 3h-2V0h-3v3H13V0h-3v3h-.1C5.5 3 1 6.9 1 11.3v29C1 44.8 5.5 48 9.9 48h29c4.4 0 7-3.2 7-7.6v-29C46 6.9 43.3 3 39 3zM11 45H9.9C7.1 45 5 43.2 5 40.4V39h6v6zm0-9H5v-6h6v6zm0-9H5v-6h6v6zm11 18h-9v-6h9v6zm0-9h-9v-6h9v6zm0-9h-9v-6h9v6zm12 18h-9v-6h9v6zm0-9h-9v-6h9v6zm0-9h-9v-6h9v6zm10 13.4c0 2.7-2.3 4.6-5 4.6h-1v-6h6v1.4zm0-4.4h-6v-6h6v6zm0-9h-6v-6h6v6zm-1-9H4v-6.7C4 8.6 7.1 6 9.9 6h.1v6h3V6h21v6h3V6h2c2.7 0 4 2.6 4 5.3V18z"/></symbol>




</svg>